<svg id="mermaid-1619552731167" width="100%" xmlns="http://www.w3.org/2000/svg" xmlns:xlink="http://www.w3.org/1999/xlink" height="630" style="max-width: 838.765625px;" viewBox="-20 -20 838.765625 630"><style>#mermaid-1619552731167{font-family:"trebuchet ms",verdana,arial,sans-serif;font-size:16px;fill:#000000;}#mermaid-1619552731167 .error-icon{fill:#552222;}#mermaid-1619552731167 .error-text{fill:#552222;stroke:#552222;}#mermaid-1619552731167 .edge-thickness-normal{stroke-width:2px;}#mermaid-1619552731167 .edge-thickness-thick{stroke-width:3.5px;}#mermaid-1619552731167 .edge-pattern-solid{stroke-dasharray:0;}#mermaid-1619552731167 .edge-pattern-dashed{stroke-dasharray:3;}#mermaid-1619552731167 .edge-pattern-dotted{stroke-dasharray:2;}#mermaid-1619552731167 .marker{fill:#666;stroke:#666;}#mermaid-1619552731167 .marker.cross{stroke:#666;}#mermaid-1619552731167 svg{font-family:"trebuchet ms",verdana,arial,sans-serif;font-size:16px;}#mermaid-1619552731167 g.classGroup text{fill:#999;fill:#111111;stroke:none;font-family:"trebuchet ms",verdana,arial,sans-serif;font-size:10px;}#mermaid-1619552731167 g.classGroup text .title{font-weight:bolder;}#mermaid-1619552731167 .classTitle{font-weight:bolder;}#mermaid-1619552731167 .node rect,#mermaid-1619552731167 .node circle,#mermaid-1619552731167 .node ellipse,#mermaid-1619552731167 .node polygon,#mermaid-1619552731167 .node path{fill:#eee;stroke:#999;stroke-width:1px;}#mermaid-1619552731167 .divider{stroke:#999;stroke:1;}#mermaid-1619552731167 g.clickable{cursor:pointer;}#mermaid-1619552731167 g.classGroup rect{fill:#eee;stroke:#999;}#mermaid-1619552731167 g.classGroup line{stroke:#999;stroke-width:1;}#mermaid-1619552731167 .classLabel .box{stroke:none;stroke-width:0;fill:#eee;opacity:0.5;}#mermaid-1619552731167 .classLabel .label{fill:#999;font-size:10px;}#mermaid-1619552731167 .relation{stroke:#666;stroke-width:1;fill:none;}#mermaid-1619552731167 .dashed-line{stroke-dasharray:3;}#mermaid-1619552731167 #compositionStart,#mermaid-1619552731167 .composition{fill:#666 !important;stroke:#666 !important;stroke-width:1;}#mermaid-1619552731167 #compositionEnd,#mermaid-1619552731167 .composition{fill:#666 !important;stroke:#666 !important;stroke-width:1;}#mermaid-1619552731167 #dependencyStart,#mermaid-1619552731167 .dependency{fill:#666 !important;stroke:#666 !important;stroke-width:1;}#mermaid-1619552731167 #dependencyStart,#mermaid-1619552731167 .dependency{fill:#666 !important;stroke:#666 !important;stroke-width:1;}#mermaid-1619552731167 #extensionStart,#mermaid-1619552731167 .extension{fill:#666 !important;stroke:#666 !important;stroke-width:1;}#mermaid-1619552731167 #extensionEnd,#mermaid-1619552731167 .extension{fill:#666 !important;stroke:#666 !important;stroke-width:1;}#mermaid-1619552731167 #aggregationStart,#mermaid-1619552731167 .aggregation{fill:#eee !important;stroke:#666 !important;stroke-width:1;}#mermaid-1619552731167 #aggregationEnd,#mermaid-1619552731167 .aggregation{fill:#eee !important;stroke:#666 !important;stroke-width:1;}#mermaid-1619552731167 .edgeTerminals{font-size:11px;}#mermaid-1619552731167:root{--mermaid-font-family:"trebuchet ms",verdana,arial,sans-serif;}#mermaid-1619552731167 class{fill:apa;}</style><g></g><defs><marker id="extensionStart" class="extension" refX="0" refY="7" markerWidth="190" markerHeight="240" orient="auto"><path d="M 1,7 L18,13 V 1 Z"></path></marker></defs><defs><marker id="extensionEnd" refX="19" refY="7" markerWidth="20" markerHeight="28" orient="auto"><path d="M 1,1 V 13 L18,7 Z"></path></marker></defs><defs><marker id="compositionStart" class="extension" refX="0" refY="7" markerWidth="190" markerHeight="240" orient="auto"><path d="M 18,7 L9,13 L1,7 L9,1 Z"></path></marker></defs><defs><marker id="compositionEnd" refX="19" refY="7" markerWidth="20" markerHeight="28" orient="auto"><path d="M 18,7 L9,13 L1,7 L9,1 Z"></path></marker></defs><defs><marker id="aggregationStart" class="extension" refX="0" refY="7" markerWidth="190" markerHeight="240" orient="auto"><path d="M 18,7 L9,13 L1,7 L9,1 Z"></path></marker></defs><defs><marker id="aggregationEnd" refX="19" refY="7" markerWidth="20" markerHeight="28" orient="auto"><path d="M 18,7 L9,13 L1,7 L9,1 Z"></path></marker></defs><defs><marker id="dependencyStart" class="extension" refX="0" refY="7" markerWidth="190" markerHeight="240" orient="auto"><path d="M 5,7 L9,13 L1,7 L9,1 Z"></path></marker></defs><defs><marker id="dependencyEnd" refX="19" refY="7" markerWidth="20" markerHeight="28" orient="auto"><path d="M 18,7 L9,13 L14,7 L9,1 Z"></path></marker></defs><g id="classid-Operator-0" class="classGroup" transform="translate(0,400 )"><rect x="0" y="0" width="196.1875" height="78" class=" "></rect><text y="15" x="0"><tspan class="title" x="72.703125">Operator</tspan></text><line x1="0" y1="21" y2="21" x2="196.1875"></line><text x="5" y="31" fill="white" class="classText"><tspan x="5">+name: String</tspan><tspan x="5" dy="10">+workplace: &amp;Airport</tspan></text><line x1="0" y1="47" y2="47" x2="196.1875"></line><text x="5" y="62" fill="white" class="classText"><tspan x="5">+reserve(&amp;Flight, &amp;Passenger)</tspan><tspan x="5" dy="10">+cancel(&amp;Reservation, &amp;Passenger)</tspan></text></g><g id="classid-Airport-1" class="classGroup" transform="translate(570.7265625,528 )"><rect x="0" y="0" width="116.578125" height="62" class=" "></rect><text y="15" x="0"><tspan class="title" x="38.2578125">Airport</tspan></text><line x1="0" y1="21" y2="21" x2="116.578125"></line><text x="5" y="31" fill="white" class="classText"><tspan x="5">+name: String</tspan><tspan x="5" dy="10">+city: String</tspan><tspan x="5" dy="10">+takeoffs_hour: u16</tspan></text><line x1="0" y1="58" y2="58" x2="116.578125"></line><text x="5" y="73" fill="white" class="classText"></text></g><g id="classid-Passenger-2" class="classGroup" transform="translate(477.76171875,0 )"><rect x="0" y="0" width="190.875" height="98" class=" "></rect><text y="15" x="0"><tspan class="title" x="66.15625">Passenger</tspan></text><line x1="0" y1="21" y2="21" x2="190.875"></line><text x="5" y="31" fill="white" class="classText"><tspan x="5">+name: String</tspan><tspan x="5" dy="10">+cpf: u64</tspan><tspan x="5" dy="10">+reservations: Vec&lt;Reservations&gt;</tspan></text><line x1="0" y1="57" y2="57" x2="190.875"></line><text x="5" y="72" fill="white" class="classText"><tspan x="5">+reserve(&amp;Flight) : Reservation</tspan><tspan x="5" dy="10">+pay(&amp;Reservation)</tspan><tspan x="5" dy="10">+cancel(&amp;Reservation)</tspan></text></g><g id="classid-Reservation-3" class="classGroup" transform="translate(527.49609375,148 )"><rect x="0" y="0" width="91.40625" height="51" class=" "></rect><text y="15" x="0"><tspan class="title" x="11.890625">Reservation</tspan></text><line x1="0" y1="21" y2="21" x2="91.40625"></line><text x="5" y="31" fill="white" class="classText"><tspan x="5">+flight: &amp;Flight</tspan><tspan x="5" dy="10">+paid: bool</tspan></text><line x1="0" y1="47" y2="47" x2="91.40625"></line><text x="5" y="62" fill="white" class="classText"></text></g><g id="classid-Flight-4" class="classGroup" transform="translate(500.64453125,249 )"><rect x="0" y="0" width="145.109375" height="101" class=" "></rect><text y="15" x="0"><tspan class="title" x="56.0703125">Flight</tspan></text><line x1="0" y1="21" y2="21" x2="145.109375"></line><text x="5" y="31" fill="white" class="classText"><tspan x="5">+date_time: DateTime</tspan><tspan x="5" dy="10">+start_airport: &amp;Airport</tspan><tspan x="5" dy="10">+end_airport: &amp;Airport</tspan><tspan x="5" dy="10">+scope: FlightScope</tspan><tspan x="5" dy="10">+kind: FlightKind</tspan><tspan x="5" dy="10">+free_seats: u32</tspan><tspan x="5" dy="10">+crew: Vec&lt;&amp;Attendant&gt;</tspan></text><line x1="0" y1="97" y2="97" x2="145.109375"></line><text x="5" y="112" fill="white" class="classText"></text></g><g id="classid-FlightKind-5" class="classGroup" transform="translate(246.1875,408.5 )"><rect x="0" y="0" width="144.5625" height="61" class=" "></rect><text y="15" x="0"><tspan x="34.1015625">«enumeration»</tspan><tspan class="title" dy="10" x="43.1796875">FlightKind</tspan></text><line x1="0" y1="31" y2="31" x2="144.5625"></line><text x="5" y="41" fill="white" class="classText"><tspan x="5">Millitary</tspan><tspan x="5" dy="10">Commercial</tspan></text><line x1="0" y1="57" y2="57" x2="144.5625"></line><text x="5" y="72" fill="white" class="classText"></text></g><g id="classid-FlightScope-6" class="classGroup" transform="translate(440.75,408.5 )"><rect x="0" y="0" width="153.265625" height="61" class=" "></rect><text y="15" x="0"><tspan x="38.453125">«enumeration»</tspan><tspan class="title" dy="10" x="43.171875">FlightScope</tspan></text><line x1="0" y1="31" y2="31" x2="153.265625"></line><text x="5" y="41" fill="white" class="classText"><tspan x="5">International</tspan><tspan x="5" dy="10">Domestic</tspan></text><line x1="0" y1="57" y2="57" x2="153.265625"></line><text x="5" y="72" fill="white" class="classText"></text></g><g id="classid-Attendant-7" class="classGroup" transform="translate(664.015625,413 )"><rect x="0" y="0" width="134.75" height="52" class=" "></rect><text y="15" x="0"><tspan class="title" x="38.7578125">Attendant</tspan></text><line x1="0" y1="21" y2="21" x2="134.75"></line><text x="5" y="31" fill="white" class="classText"><tspan x="5">+name: String</tspan><tspan x="5" dy="10">+last_location: &amp;Airport</tspan></text><line x1="0" y1="48" y2="48" x2="134.75"></line><text x="5" y="63" fill="white" class="classText"></text></g><path d="M98.09375,478L98.09375,482.1666666666667C98.09375,486.3333333333333,98.09375,494.6666666666667,176.86588541666666,507.14197494530936C255.63802083333334,519.6172832239521,413.1822916666667,536.2345664479041,491.9544270833333,544.5432080598802L570.7265625,552.8518496718561" id="edge0" class="relation" marker-end="url(#aggregationEnd)"></path><path d="M573.19921875,98L573.19921875,102.16666666666667C573.19921875,106.33333333333333,573.19921875,114.66666666666667,573.19921875,123C573.19921875,131.33333333333334,573.19921875,139.66666666666666,573.19921875,143.83333333333334L573.19921875,148" id="edge1" class="relation" marker-end="url(#compositionEnd)"></path><path d="M573.19921875,199L573.19921875,203.16666666666666C573.19921875,207.33333333333334,573.19921875,215.66666666666666,573.19921875,224C573.19921875,232.33333333333334,573.19921875,240.66666666666666,573.19921875,244.83333333333334L573.19921875,249" id="edge2" class="relation" marker-end="url(#aggregationEnd)"></path><path d="M500.64453125,321.00460811826224L470.2819010416667,330.00384009855185C439.9192708333333,339.0030720788415,379.1940104166667,357.0015360394207,348.8313802083333,371.5841013530437C318.46875,386.1666666666667,318.46875,397.3333333333333,318.46875,402.9166666666667L318.46875,408.5" id="edge3" class="relation" marker-end="url(#compositionEnd)"></path><path d="M535.8650662251656,350L532.7846906043047,354.1666666666667C529.7043149834437,358.3333333333333,523.5435637417219,366.6666666666667,520.463188120861,376.4166666666667C517.3828125,386.1666666666667,517.3828125,397.3333333333333,517.3828125,402.9166666666667L517.3828125,408.5" id="edge4" class="relation" marker-end="url(#compositionEnd)"></path><path d="M610.5333712748344,350L613.6137468956953,354.1666666666667C616.6941225165563,358.3333333333333,622.8548737582781,366.6666666666667,625.935249379139,381.5C629.015625,396.3333333333333,629.015625,417.6666666666667,629.015625,439C629.015625,460.3333333333333,629.015625,481.6666666666667,629.015625,496.5C629.015625,511.3333333333333,629.015625,519.6666666666666,629.015625,523.8333333333334L629.015625,528" id="edge5" class="relation" marker-end="url(#aggregationEnd)"></path><path d="M645.75390625,334.1281699879003L660.0266927083334,340.9401416565836C674.2994791666666,347.75211332526686,702.8450520833334,361.3760566626334,717.1178385416666,374.52136166465C731.390625,387.6666666666667,731.390625,400.3333333333333,731.390625,406.6666666666667L731.390625,413" id="edge6" class="relation" marker-end="url(#aggregationEnd)"></path><path d="M731.390625,465L731.390625,471.3333333333333C731.390625,477.6666666666667,731.390625,490.3333333333333,723.7734375,500.8333333333333C716.15625,511.3333333333333,700.921875,519.6666666666666,693.3046875,523.8333333333334L685.6875,528" id="edge7" class="relation" marker-end="url(#aggregationEnd)"></path></svg>